<?xml version="1.0" encoding="iso-8859-1"?>
<!-- Generator: Adobe Illustrator 18.0.0, SVG Export Plug-In . SVG Version: 6.00 Build 0)  -->
<!DOCTYPE svg PUBLIC "-//W3C//DTD SVG 1.1//EN" "http://www.w3.org/Graphics/SVG/1.1/DTD/svg11.dtd">
<svg version="1.1" id="Layer_1" xmlns="http://www.w3.org/2000/svg" xmlns:xlink="http://www.w3.org/1999/xlink" x="0px" y="0px"
	 viewBox="0 0 1565 1565" style="enable-background:new 0 0 1565 1565;" xml:space="preserve">
<path style="fill:none;" d="M1271,1140.029V696.141c0-33.084-26.905-59.971-60.012-59.971h-15.603v368.324
	c0,32.085-12.503,62.17-35.107,84.859c-22.605,22.689-52.811,35.083-84.917,35.083H565.356v15.593
	c0,33.084,26.906,59.971,60.012,59.971h585.72C1244.194,1200,1271,1173.213,1271,1140.029z"/>
<path style="fill:none;" d="M565.356,988.901h-30.006h-30.006h-75.615v15.593c0,33.084,26.906,59.971,60.012,59.971h15.603h30.006
	h30.006h510.004c33.107,0,60.012-26.887,60.012-59.971V636.17v-29.986v-29.986v-15.593c0-33.084-26.906-59.971-60.012-59.971
	h-15.603v75.564v29.986v29.986v232.789c0,32.084-12.502,62.17-35.107,84.859c-22.705,22.689-52.811,35.083-84.917,35.083H565.356
	L565.356,988.901z"/>
<path style="fill:none;" d="M294,868.959c0,33.084,26.906,59.971,60.012,59.971h15.603h30.006h30.006h75.615h30.006h30.006h374.376
	c33.107,0,60.012-26.887,60.012-59.971V636.17v-29.986v-29.986v-75.564v-29.986v-29.986v-15.692
	c0-33.084-26.906-59.971-60.012-59.971h-585.62C320.906,365,294,391.887,294,424.971V868.959z"/>
<path style="fill:#FFFFFF;" d="M782.5,0C350.315,0,0,350.315,0,782.5S350.315,1565,782.5,1565S1565,1214.636,1565,782.5
	S1214.684,0,782.5,0z M781.717,1468.704c-378.583,0-685.47-306.544-685.47-684.688S403.134,99.329,781.717,99.329
	s685.47,306.544,685.47,684.688S1160.301,1468.704,781.717,1468.704z"/>
</svg>
