<?xml version="1.0" encoding="iso-8859-1"?>
<!-- Generator: Adobe Illustrator 18.0.0, SVG Export Plug-In . SVG Version: 6.00 Build 0)  -->
<!DOCTYPE svg PUBLIC "-//W3C//DTD SVG 1.1//EN" "http://www.w3.org/Graphics/SVG/1.1/DTD/svg11.dtd">
<svg version="1.1" id="Layer_1" xmlns="http://www.w3.org/2000/svg" xmlns:xlink="http://www.w3.org/1999/xlink" x="0px" y="0px"
	 viewBox="0 0 480.212 417.35" style="enable-background:new 0 0 480.212 417.35;" xml:space="preserve">
<path style="fill:#FFFFFF;" d="M399.802,45.985c-28.317-14.51-57.436-26.719-87.254-37.527c-4.203-8.806-19.512-9.006-27.617-8.006
	c-14.809,2.001-29.919,4.003-44.728,4.303c-14.809-0.3-29.918-2.302-44.728-4.303c-8.005-1.101-23.414-0.8-27.617,8.006
	c-29.919,10.908-58.937,23.016-87.254,37.527C73.801,49.487-2.346,91.017,0.056,95.02c11.307,18.814,56.635,103.174,62.239,103.174
	c7.905,0,21.313-14.51,28.617-11.908c0.401,16.812,1.101,211.551,1.101,222.759c0,7.105,83.151,8.306,148.091,8.306
	c65.041,0,148.092-1.201,148.092-8.306c0.1-11.308,0.7-205.947,1.1-222.759c7.304-2.602,20.713,11.908,28.617,11.908
	c5.604,0,50.932-84.36,62.238-103.174C482.653,91.117,406.606,49.487,399.802,45.985z M135.839,395.034h-24.015v-31.522h24.015
	V395.034z M216.289,205.899c0,0.8-0.701,1.501-1.501,1.501h-23.815c-0.8,0-1.501-0.701-1.501-1.501v-59.243
	c0-1.201-1.401-2.001-2.401-1.201c-3.502,2.502-6.904,4.603-10.206,6.205c-3.602,1.801-8.105,3.603-13.308,5.304
	c-1.001,0.3-2.001-0.4-2.001-1.501V136.85c0-0.701,0.4-1.201,1.101-1.501c8.505-2.802,15.21-6.205,20.012-10.208
	c4.803-3.903,8.505-8.706,11.307-14.31c0.3-0.5,0.801-0.901,1.401-0.901h19.512c0.8,0,1.501,0.701,1.501,1.501v94.468H216.289z
	 M305.544,205.899c0,0.8-0.701,1.501-1.501,1.501h-23.814c-0.8,0-1.501-0.701-1.501-1.501v-59.243c0-1.201-1.401-2.001-2.402-1.201
	c-3.502,2.502-6.904,4.603-10.205,6.205c-3.603,1.801-8.106,3.603-13.309,5.304c-1.001,0.3-2.001-0.4-2.001-1.501V136.85
	c0-0.701,0.401-1.201,1.101-1.501c8.505-2.802,15.21-6.205,20.012-10.208c4.803-3.903,8.505-8.706,11.307-14.31
	c0.3-0.5,0.8-0.901,1.401-0.901h19.512c0.8,0,1.501,0.701,1.501,1.501v94.468H305.544z"/>
</svg>
