<?xml version="1.0" encoding="utf-8"?>
<!-- Generator: Adobe Illustrator 18.0.0, SVG Export Plug-In . SVG Version: 6.00 Build 0)  -->
<!DOCTYPE svg PUBLIC "-//W3C//DTD SVG 1.1//EN" "http://www.w3.org/Graphics/SVG/1.1/DTD/svg11.dtd">
<svg version="1.1" id="Layer_5" xmlns="http://www.w3.org/2000/svg" xmlns:xlink="http://www.w3.org/1999/xlink" x="0px" y="0px"
	 viewBox="-82 251.6 735 287.6" enable-background="new -82 251.6 735 287.6" xml:space="preserve">
<g>
	<g>
		<path fill="#FFFFFF" d="M617.8,251.6H-46.8c-19.1,0-35.2,9.8-35.2,21.4v244.8c0,11.6,16.1,21.4,35.2,21.4h664.5
			c19.1,0,35.2-9.8,35.2-21.4V273C653,261.4,636.9,251.6,617.8,251.6z M622.8,518.4c0,1.8-2,3.1-5,3.1H-46.8c-3,0-5-1.2-5-3.1V273.6
			c0-1.8,2-3.1,5-3.1h664.5c3,0,5,1.2,5,3.1V518.4z"/>
	</g>
</g>
<rect x="-47.5" y="337" fill="none" width="650" height="126"/>
<text transform="matrix(1 0 0 1 -9.1157 435.1387)"><tspan x="0" y="0" fill="#FFFFFF" font-family="'SourceSansPro-Bold'" font-size="120">Contact Us</tspan><tspan x="573.2" y="0" font-family="'SourceSansPro-Bold'" font-size="140"> </tspan></text>
</svg>
